<svg xmlns="http://www.w3.org/2000/svg" width="14" height="14" viewBox="0 0 14 14">
  <metadata><?xpacket begin="﻿" id="W5M0MpCehiHzreSzNTczkc9d"?>
<x:xmpmeta xmlns:x="adobe:ns:meta/" x:xmptk="Adobe XMP Core 5.6-c142 79.160924, 2017/07/13-01:06:39        ">
   <rdf:RDF xmlns:rdf="http://www.w3.org/1999/02/22-rdf-syntax-ns#">
      <rdf:Description rdf:about=""/>
   </rdf:RDF>
</x:xmpmeta>
                                                                                                    
                                                                                                    
                                                                                                    
                                                                                                    
                                                                                                    
                                                                                                    
                                                                                                    
                                                                                                    
                                                                                                    
                                                                                                    
                                                                                                    
                                                                                                    
                                                                                                    
                                                                                                    
                                                                                                    
                                                                                                    
                                                                                                    
                                                                                                    
                                                                                                    
                                                                                                    
                           
<?xpacket end="w"?></metadata>
<defs>
    <style>
      .cls-1 {
        fill: #737373;
        fill-rule: evenodd;
      }
    </style>
  </defs>
  <path id="企业_默认" data-name="企业 默认" class="cls-1" d="M168,218h3a1,1,0,0,1,1,1v12a1,1,0,0,1-1,1h-3a1,1,0,0,1-1-1V219A1,1,0,0,1,168,218Zm-2.5,13h13a0.5,0.5,0,0,1,0,1h-13A0.5,0.5,0,0,1,165.5,231Zm8.3-8.908,2.4,0.918a1.817,1.817,0,0,1,.8,1.439v6.878c0,0.541-.358.773-0.8,0.52l-2.4.061c-0.442-.254-0.8.082-0.8-0.459v-8.837C173,222.071,173.358,221.838,173.8,222.092Z" transform="translate(-165 -218)"/>
</svg>
