<svg xmlns="http://www.w3.org/2000/svg" width="14" height="14" viewBox="0 0 13 13">
  <metadata><?xpacket begin="﻿" id="W5M0MpCehiHzreSzNTczkc9d"?>
<x:xmpmeta xmlns:x="adobe:ns:meta/" x:xmptk="Adobe XMP Core 5.6-c142 79.160924, 2017/07/13-01:06:39        ">
   <rdf:RDF xmlns:rdf="http://www.w3.org/1999/02/22-rdf-syntax-ns#">
      <rdf:Description rdf:about=""/>
   </rdf:RDF>
</x:xmpmeta>
                                                                                                    
                                                                                                    
                                                                                                    
                                                                                                    
                                                                                                    
                                                                                                    
                                                                                                    
                                                                                                    
                                                                                                    
                                                                                                    
                                                                                                    
                                                                                                    
                                                                                                    
                                                                                                    
                                                                                                    
                                                                                                    
                                                                                                    
                                                                                                    
                                                                                                    
                                                                                                    
                           
<?xpacket end="w"?></metadata>
<defs>
    <style>
      .cls-1 {
        fill: #737373;
        fill-rule: evenodd;
      }
    </style>
  </defs>
  <path id="首页-_默认" data-name="首页- 默认" class="cls-1" d="M172.218,51.1l-6.041,4.874a0.482,0.482,0,0,0-.177.376v7.173a0.468,0.468,0,0,0,.459.477H170.6a0.468,0.468,0,0,0,.459-0.477V60.161a0.469,0.469,0,0,1,.46-0.477h1.97a0.468,0.468,0,0,1,.459.477v3.363a0.469,0.469,0,0,0,.46.477h4.136a0.469,0.469,0,0,0,.46-0.477V56.35a0.486,0.486,0,0,0-.177-0.376L172.782,51.1A0.446,0.446,0,0,0,172.218,51.1Z" transform="translate(-166 -51)"/>
</svg>
