<svg xmlns="http://www.w3.org/2000/svg" width="14" height="14" viewBox="0 0 14 14">
  <metadata><?xpacket begin="﻿" id="W5M0MpCehiHzreSzNTczkc9d"?>
<x:xmpmeta xmlns:x="adobe:ns:meta/" x:xmptk="Adobe XMP Core 5.6-c142 79.160924, 2017/07/13-01:06:39        ">
   <rdf:RDF xmlns:rdf="http://www.w3.org/1999/02/22-rdf-syntax-ns#">
      <rdf:Description rdf:about=""/>
   </rdf:RDF>
</x:xmpmeta>
                                                                                                    
                                                                                                    
                                                                                                    
                                                                                                    
                                                                                                    
                                                                                                    
                                                                                                    
                                                                                                    
                                                                                                    
                                                                                                    
                                                                                                    
                                                                                                    
                                                                                                    
                                                                                                    
                                                                                                    
                                                                                                    
                                                                                                    
                                                                                                    
                                                                                                    
                                                                                                    
                           
<?xpacket end="w"?></metadata>
<defs>
    <style>
      .cls-1 {
        fill: #737373;
        fill-rule: evenodd;
      }
    </style>
  </defs>
  <path id="营销_默认" data-name="营销 默认" class="cls-1" d="M176.981,107h-9.965A2.017,2.017,0,0,0,165,109.015v5.966A2.018,2.018,0,0,0,167.016,117h9.965A2.017,2.017,0,0,0,179,114.981v-5.966A2.016,2.016,0,0,0,176.981,107Zm-0.892,4.483-2.246,2.246a0.976,0.976,0,0,1-1.337,0l-1.612-1.611-1.612,1.611a0.915,0.915,0,0,1-1.3,0l-0.079-.078a0.919,0.919,0,0,1,0-1.3l2.247-2.246a1.213,1.213,0,0,1,1.478,0l1.541,1.541,1.542-1.541a0.915,0.915,0,0,1,1.295,0l0.078,0.078A0.915,0.915,0,0,1,176.089,111.482ZM175,119h-6a1,1,0,0,0,0,2h6A1,1,0,1,0,175,119Z" transform="translate(-165 -107)"/>
</svg>
