<svg xmlns="http://www.w3.org/2000/svg" width="14.031" height="14" viewBox="0 0 14.031 14">
  <metadata><?xpacket begin="﻿" id="W5M0MpCehiHzreSzNTczkc9d"?>
<x:xmpmeta xmlns:x="adobe:ns:meta/" x:xmptk="Adobe XMP Core 5.6-c142 79.160924, 2017/07/13-01:06:39        ">
   <rdf:RDF xmlns:rdf="http://www.w3.org/1999/02/22-rdf-syntax-ns#">
      <rdf:Description rdf:about=""/>
   </rdf:RDF>
</x:xmpmeta>
                                                                                                    
                                                                                                    
                                                                                                    
                                                                                                    
                                                                                                    
                                                                                                    
                                                                                                    
                                                                                                    
                                                                                                    
                                                                                                    
                                                                                                    
                                                                                                    
                                                                                                    
                                                                                                    
                                                                                                    
                                                                                                    
                                                                                                    
                                                                                                    
                                                                                                    
                                                                                                    
                           
<?xpacket end="w"?></metadata>
<defs>
    <style>
      .cls-1 {
        fill: #737373;
        fill-rule: evenodd;
      }
    </style>
  </defs>
  <path id="商品_默认" data-name="商品 默认" class="cls-1" d="M178.625,169.581l-5.762,6.059a1.188,1.188,0,0,1-1.751-.018l-5.792-6.338a1.29,1.29,0,0,1-.156-1.515l2.093-3.566a2.417,2.417,0,0,1,2.078-1.21h5.247a2.42,2.42,0,0,1,2.109,1.262l2.121,3.819A1.287,1.287,0,0,1,178.625,169.581Zm-2.763-1.827-0.645-.646a0.456,0.456,0,0,0-.645,0L172,169.684l-2.539-2.541a0.476,0.476,0,0,0-.673,0l-0.673.673a0.477,0.477,0,0,0,0,.674l3.365,3.367a0.476,0.476,0,0,0,.673,0l0.109-.109a0.451,0.451,0,0,0,.378-0.123l3.224-3.226A0.456,0.456,0,0,0,175.862,167.754Z" transform="translate(-164.969 -162.5)"/>
</svg>
